<svg width="10" height="11" viewBox="0 0 10 11" fill="none" xmlns="http://www.w3.org/2000/svg">
<mask id="path-1-inside-1_6_360" fill="white">
<path d="M2.91674 3.50423V1.83757C2.91674 1.60745 3.10329 1.4209 3.33341 1.4209H8.75008C8.9802 1.4209 9.16675 1.60745 9.16675 1.83757V7.25423C9.16675 7.48436 8.9802 7.6709 8.75008 7.6709H7.0835V9.33444C7.0835 9.56627 6.89641 9.75423 6.6637 9.75423H1.2532C1.02135 9.75423 0.833496 9.56719 0.833496 9.33444L0.834646 3.92402C0.834696 3.69218 1.02175 3.50423 1.25443 3.50423H2.91674ZM3.75008 3.50423H6.66379C6.89558 3.50423 7.0835 3.69128 7.0835 3.92402V6.83757H8.33341V2.25423H3.75008V3.50423ZM1.66789 4.33757L1.66692 8.9209H6.25016V4.33757H1.66789Z"/>
</mask>
<path d="M2.91674 3.50423V4.50423H3.91674V3.50423H2.91674ZM7.0835 7.6709V6.6709H6.0835V7.6709H7.0835ZM0.833496 9.33444L-0.166504 9.33423V9.33444H0.833496ZM0.834646 3.92402L-0.165354 3.9238L-0.165354 3.9238L0.834646 3.92402ZM3.75008 3.50423H2.75008V4.50423H3.75008V3.50423ZM7.0835 6.83757H6.0835V7.83757H7.0835V6.83757ZM8.33341 6.83757V7.83757H9.33341V6.83757H8.33341ZM8.33341 2.25423H9.33341V1.25423H8.33341V2.25423ZM3.75008 2.25423V1.25423H2.75008V2.25423H3.75008ZM1.66789 4.33757V3.33757H0.668105L0.667892 4.33735L1.66789 4.33757ZM1.66692 8.9209L0.666917 8.92069L0.666704 9.9209H1.66692V8.9209ZM6.25016 8.9209V9.9209H7.25016V8.9209H6.25016ZM6.25016 4.33757H7.25016V3.33757H6.25016V4.33757ZM3.91674 3.50423V1.83757H1.91674V3.50423H3.91674ZM3.91674 1.83757C3.91674 2.15973 3.65558 2.4209 3.33341 2.4209V0.420898C2.551 0.420898 1.91674 1.05517 1.91674 1.83757H3.91674ZM3.33341 2.4209H8.75008V0.420898H3.33341V2.4209ZM8.75008 2.4209C8.42791 2.4209 8.16675 2.15972 8.16675 1.83757H10.1667C10.1667 1.05518 9.5325 0.420898 8.75008 0.420898V2.4209ZM8.16675 1.83757V7.25423H10.1667V1.83757H8.16675ZM8.16675 7.25423C8.16675 6.93207 8.42792 6.6709 8.75008 6.6709V8.6709C9.53249 8.6709 10.1667 8.03664 10.1667 7.25423H8.16675ZM8.75008 6.6709H7.0835V8.6709H8.75008V6.6709ZM6.0835 7.6709V9.33444H8.0835V7.6709H6.0835ZM6.0835 9.33444C6.0835 9.01535 6.34277 8.75423 6.6637 8.75423V10.7542C7.45006 10.7542 8.0835 10.1172 8.0835 9.33444H6.0835ZM6.6637 8.75423H1.2532V10.7542H6.6637V8.75423ZM1.2532 8.75423C1.57251 8.75423 1.8335 9.01378 1.8335 9.33444H-0.166504C-0.166504 10.1206 0.470196 10.7542 1.2532 10.7542V8.75423ZM1.8335 9.33465L1.83465 3.92423L-0.165354 3.9238L-0.166504 9.33423L1.8335 9.33465ZM1.83465 3.92423C1.83458 4.24301 1.57553 4.50423 1.25443 4.50423V2.50423C0.467959 2.50423 -0.165185 3.14135 -0.165354 3.9238L1.83465 3.92423ZM1.25443 4.50423H2.91674V2.50423H1.25443V4.50423ZM3.75008 4.50423H6.66379V2.50423H3.75008V4.50423ZM6.66379 4.50423C6.34452 4.50423 6.0835 4.2448 6.0835 3.92402H8.0835C8.0835 3.13777 7.44663 2.50423 6.66379 2.50423V4.50423ZM6.0835 3.92402V6.83757H8.0835V3.92402H6.0835ZM7.0835 7.83757H8.33341V5.83757H7.0835V7.83757ZM9.33341 6.83757V2.25423H7.33341V6.83757H9.33341ZM8.33341 1.25423H3.75008V3.25423H8.33341V1.25423ZM2.75008 2.25423V3.50423H4.75008V2.25423H2.75008ZM0.667892 4.33735L0.666917 8.92069L2.66692 8.92111L2.66789 4.33778L0.667892 4.33735ZM1.66692 9.9209H6.25016V7.9209H1.66692V9.9209ZM7.25016 8.9209V4.33757H5.25016V8.9209H7.25016ZM6.25016 3.33757H1.66789V5.33757H6.25016V3.33757Z" fill="#6A7684" mask="url(#path-1-inside-1_6_360)"/>
</svg>
