<svg width="36" height="40" viewBox="0 0 36 40" fill="none" xmlns="http://www.w3.org/2000/svg">
<path d="M10.2287 33.5768C10.2287 33.5768 10.2287 33.5597 10.2287 33.5425V15.4748L2.47017 19.9874C2.47017 19.9874 2.4447 20.0046 2.42773 20.0132C1.35817 20.6566 0.432915 21.9435 -1.90735e-06 23.2561V27.2969C-1.90735e-06 29.0385 1.22235 31.1661 2.71634 32.0412L6.25607 34.1002L11.7906 37.3173C10.8738 36.2793 10.2287 34.8208 10.2202 33.5682L10.2287 33.5768Z" fill="url(#paint0_linear_9_29)"/>
<path d="M2.44475 20.0043C2.44475 20.0043 2.46173 19.9957 2.47022 19.9871L10.2033 15.4916L17.9958 10.9533L10.2373 6.44063C10.2373 6.44063 10.2118 6.42347 10.1948 6.41489C9.10827 5.7972 7.53789 5.63419 6.1967 5.9173L2.71638 7.94199C1.2224 8.80848 4.3869e-05 10.9447 4.3869e-05 12.6863V23.2472C0.432961 21.926 1.35822 20.6391 2.43626 19.9957L2.44475 20.0043Z" fill="url(#paint1_linear_9_29)"/>
<path d="M10.2117 6.43222C10.2117 6.43222 10.2287 6.44079 10.2372 6.44937L17.9703 10.9449L25.7712 15.4832V6.45796C25.7712 6.45796 25.7712 6.42364 25.7712 6.41506C25.7543 5.1625 25.1176 3.71263 24.2009 2.67455L20.7206 0.649869C19.2266 -0.216626 16.7819 -0.216626 15.2879 0.649869L11.7481 2.70886L6.2136 5.92605C7.56328 5.64293 9.14215 5.80594 10.2287 6.43222H10.2117Z" fill="url(#paint2_linear_9_29)"/>
<path d="M25.7713 6.42367C25.7713 6.42367 25.7713 6.44083 25.7713 6.45799V24.5257L33.5298 20.0131C33.5298 20.0131 33.5553 19.9959 33.5723 19.9873C34.6418 19.3439 35.5671 18.0656 36 16.7444V12.695C36 10.9535 34.7776 8.81726 33.2837 7.95076L29.7439 5.89177L24.2094 2.67459C25.1262 3.71266 25.7713 5.17112 25.7798 6.42367H25.7713Z" fill="url(#paint3_linear_9_29)"/>
<path d="M33.5553 19.987C33.5553 19.987 33.5383 19.9956 33.5298 20.0041L25.7967 24.4996L18.0042 29.038L25.7628 33.5506C25.7628 33.5506 25.7883 33.5678 25.8052 33.5678C26.8918 34.1855 28.4537 34.3485 29.8033 34.0654L33.2837 32.0407C34.7776 31.1656 36 29.038 36 27.2964V23.1784V16.7355C35.5671 18.0567 34.6418 19.3435 33.5638 19.987H33.5553Z" fill="url(#paint4_linear_9_29)"/>
<path d="M25.7797 33.5678C25.7797 33.5678 25.7627 33.5592 25.7543 33.5506L18.0212 29.0551L10.2287 24.5168V33.542C10.2287 33.542 10.2287 33.5764 10.2287 33.5849C10.2457 34.8375 10.8823 36.2874 11.7991 37.3254L15.2794 39.3501C16.7734 40.2166 19.2181 40.2166 20.7121 39.3501L24.2518 37.2911L29.7863 34.074C28.4366 34.3571 26.8578 34.1941 25.7712 33.5678H25.7797Z" fill="url(#paint5_linear_9_29)"/>
<defs>
<linearGradient id="paint0_linear_9_29" x1="10.2594" y1="32.6932" x2="3.1955" y2="17.9318" gradientUnits="userSpaceOnUse">
<stop stop-color="#E60012"/>
<stop offset="0.43" stop-color="#E30011"/>
<stop offset="0.61" stop-color="#DC000F"/>
<stop offset="0.74" stop-color="#D0000C"/>
<stop offset="0.85" stop-color="#BF0008"/>
</linearGradient>
<linearGradient id="paint1_linear_9_29" x1="3.24268" y1="19.4724" x2="12.6115" y2="6.05322" gradientUnits="userSpaceOnUse">
<stop stop-color="#113961"/>
<stop offset="0.43" stop-color="#10375E"/>
<stop offset="0.61" stop-color="#0C3157"/>
<stop offset="0.75" stop-color="#07284B"/>
<stop offset="0.85" stop-color="#001C3C"/>
</linearGradient>
<linearGradient id="paint2_linear_9_29" x1="10.996" y1="6.76979" x2="27.2175" y2="8.07573" gradientUnits="userSpaceOnUse">
<stop stop-color="#E60012"/>
<stop offset="0.43" stop-color="#E30011"/>
<stop offset="0.61" stop-color="#DC000F"/>
<stop offset="0.74" stop-color="#D0000C"/>
<stop offset="0.85" stop-color="#BF0008"/>
</linearGradient>
<linearGradient id="paint3_linear_9_29" x1="25.7784" y1="7.27842" x2="32.8424" y2="22.0398" gradientUnits="userSpaceOnUse">
<stop stop-color="#113961"/>
<stop offset="0.43" stop-color="#10375E"/>
<stop offset="0.61" stop-color="#0C3157"/>
<stop offset="0.75" stop-color="#07284B"/>
<stop offset="0.85" stop-color="#001C3C"/>
</linearGradient>
<linearGradient id="paint4_linear_9_29" x1="32.7574" y1="20.5275" x2="23.3886" y2="33.9466" gradientUnits="userSpaceOnUse">
<stop stop-color="#E60012"/>
<stop offset="0.43" stop-color="#E30011"/>
<stop offset="0.61" stop-color="#DC000F"/>
<stop offset="0.74" stop-color="#D0000C"/>
<stop offset="0.85" stop-color="#BF0008"/>
</linearGradient>
<linearGradient id="paint5_linear_9_29" x1="25.0446" y1="33.2398" x2="8.82311" y2="31.9339" gradientUnits="userSpaceOnUse">
<stop stop-color="#113961"/>
<stop offset="0.43" stop-color="#10375E"/>
<stop offset="0.61" stop-color="#0C3157"/>
<stop offset="0.75" stop-color="#07284B"/>
<stop offset="0.85" stop-color="#001C3C"/>
</linearGradient>
</defs>
</svg>
