<svg width="32" height="32" viewBox="0 0 32 32" fill="none" xmlns="http://www.w3.org/2000/svg">
<rect x="24.8757" y="5" width="22.001" height="17.8758" rx="2" transform="rotate(90 24.8757 5)" fill="#4F5867"/>
<rect x="23.0259" y="7.75012" width="4.64083" height="13.8684" rx="1.5" transform="rotate(90 23.0259 7.75012)" fill="#B0B9C2"/>
<rect x="13.2053" y="20.6608" width="3.28554" height="3.2864" rx="1.64277" transform="rotate(90 13.2053 20.6608)" fill="#B0B9C2"/>
<rect x="13.205" y="16.0005" width="3.28554" height="3.2864" rx="1.64277" transform="rotate(90 13.205 16.0005)" fill="#B0B9C2"/>
<rect x="17.864" y="20.6608" width="3.28554" height="3.2864" rx="1.64277" transform="rotate(90 17.864 20.6608)" fill="#B0B9C2"/>
<rect x="17.864" y="16.0005" width="3.28554" height="3.2864" rx="1.64277" transform="rotate(90 17.864 16.0005)" fill="#B0B9C2"/>
<rect x="22.4606" y="20.6608" width="3.28554" height="3.2864" rx="1.64277" transform="rotate(90 22.4606 20.6608)" fill="#FF5F6A"/>
<rect x="22.522" y="16.0005" width="3.28554" height="3.2864" rx="1.64277" transform="rotate(90 22.522 16.0005)" fill="#B0B9C2"/>
</svg>
