<svg width="34" height="33" viewBox="0 0 34 33" fill="none" xmlns="http://www.w3.org/2000/svg">
<path d="M0.657018 10.8473C0.819119 5.0117 5.5117 0.319119 11.3473 0.157018L17 0L22.6527 0.157018C28.4883 0.319119 33.1809 5.0117 33.343 10.8473L33.5 16.5L33.343 22.1527C33.1809 27.9883 28.4883 32.6809 22.6527 32.843L17 33L11.3473 32.843C5.5117 32.6809 0.819119 27.9883 0.657018 22.1527L0.5 16.5L0.657018 10.8473Z" fill="url(#paint0_linear_9_604)"/>
<path d="M9.11554 14.8634H24.5002V20.5557C24.5002 21.6603 23.6047 22.5557 22.5002 22.5557H11.1155C10.011 22.5557 9.11554 21.6603 9.11554 20.5557V14.8634Z" fill="white"/>
<path d="M9.11539 12.4444C9.11539 11.8922 9.5631 11.4444 10.1154 11.4444H23.5C24.0523 11.4444 24.5 11.8922 24.5 12.4444V14.0085H9.11539V12.4444Z" fill="white"/>
<defs>
<linearGradient id="paint0_linear_9_604" x1="4.1029" y1="4.35903e-07" x2="29.8971" y2="33" gradientUnits="userSpaceOnUse">
<stop offset="0.198881" stop-color="#E2EEFF" stop-opacity="0.48"/>
<stop offset="1" stop-color="#3984F3" stop-opacity="0.42"/>
</linearGradient>
</defs>
</svg>
