<svg width="26" height="26" viewBox="0 0 26 26" fill="none" xmlns="http://www.w3.org/2000/svg">
<path d="M17.2855 15.8417L14.8618 18.2627L16.3673 19.7655L18.791 17.3445L17.2855 15.8417Z" fill="#D3E6ED"/>
<path d="M16.2268 5.85019C14.5369 4.16271 12.2772 3.38334 10.0642 3.51165C8.16681 3.62099 6.30707 4.40078 4.85515 5.84607C1.71495 8.98297 1.71495 14.0685 4.85515 17.2054C6.30253 18.6495 8.16185 19.4251 10.0551 19.5398C11.3227 19.617 12.604 19.3925 13.789 18.8698C14.6749 18.4795 15.5021 17.9254 16.2272 17.2C16.9523 16.476 17.5085 15.6504 17.894 14.7695C19.1984 11.8257 18.6381 8.263 16.2272 5.84978M14.8344 15.8129C14.5856 16.0613 14.3199 16.2845 14.0415 16.4805C11.9483 17.9596 9.12912 17.9596 7.03593 16.4817C6.75827 16.2845 6.49342 16.063 6.24427 15.8142C3.8726 13.4488 3.8726 9.60515 6.24427 7.2369C8.61594 4.86824 12.4623 4.86989 14.8339 7.23814C17.206 9.60639 17.206 13.4447 14.8339 15.8129" fill="#3984F3"/>
<path d="M18.7876 17.2617L21.9757 20.4452C22.6744 21.1429 22.6769 22.2771 21.9778 22.9752C21.2766 23.6754 20.1408 23.6729 19.4421 22.9752L16.2544 19.7921L18.7876 17.2617Z" fill="#0F3961"/>
<path d="M18.8375 16.6232C19.0478 16.8336 19.0478 17.1782 18.835 17.3906L16.3819 19.8398C16.1695 20.0527 15.8241 20.0527 15.6134 19.8422C15.401 19.6297 15.401 19.2852 15.6134 19.0723L18.0665 16.6232C18.2792 16.4107 18.6243 16.4107 18.8375 16.6232Z" fill="#2C3033"/>
<mask id="mask0_1_47" style="mask-type:luminance" maskUnits="userSpaceOnUse" x="4" y="5" width="13" height="13">
<path d="M16.6136 5.46191H4.46729V17.5907H16.6136V5.46191Z" fill="white"/>
</mask>
<g mask="url(#mask0_1_47)">
<path d="M14.8349 15.8137C14.5862 16.0617 14.3205 16.2853 14.042 16.4805C11.9488 17.9604 9.12965 17.9604 7.03687 16.4821C6.76004 16.2857 6.49478 16.0642 6.24604 15.8154C3.87437 13.4488 3.87437 9.60552 6.24604 7.23728C8.61771 4.86903 12.4632 4.87068 14.8349 7.23893C17.2066 9.60717 17.2066 13.4455 14.8349 15.8137Z" fill="#F8F8FA"/>
</g>
<mask id="mask1_1_47" style="mask-type:alpha" maskUnits="userSpaceOnUse" x="7" y="8" width="7" height="8">
<rect width="8.32448" height="1.08113" rx="0.540563" transform="matrix(0.695743 -0.718291 0.718284 0.69575 7.16846 14.3311)" fill="#D9D9D9"/>
<ellipse cx="1.21627" cy="1.21626" rx="1.21627" ry="1.21626" transform="matrix(0.499996 -0.866028 0.866023 0.500004 10.8833 14.3584)" fill="#D9D9D9"/>
<ellipse cx="1.21627" cy="1.21626" rx="1.21627" ry="1.21626" transform="matrix(0.499996 -0.866028 0.866023 0.500004 6.59082 10.1525)" fill="#D9D9D9"/>
</mask>
<g mask="url(#mask1_1_47)">
<rect x="4.93896" y="6.04102" width="10.5409" height="10.2708" fill="url(#paint0_linear_1_47)"/>
</g>
<defs>
<linearGradient id="paint0_linear_1_47" x1="5.83912" y1="3.95876" x2="16.8107" y2="10.0143" gradientUnits="userSpaceOnUse">
<stop stop-color="#4888E6"/>
<stop offset="0.849381" stop-color="#8BB7F9"/>
</linearGradient>
</defs>
</svg>
