<svg width="33" height="33" viewBox="0 0 33 33" fill="none" xmlns="http://www.w3.org/2000/svg">
<path d="M0.157018 10.8473C0.319119 5.0117 5.0117 0.319119 10.8473 0.157018L16.5 0L22.1527 0.157018C27.9883 0.319119 32.6809 5.0117 32.843 10.8473L33 16.5L32.843 22.1527C32.6809 27.9883 27.9883 32.6809 22.1527 32.843L16.5 33L10.8473 32.843C5.0117 32.6809 0.319119 27.9883 0.157018 22.1527L0 16.5L0.157018 10.8473Z" fill="url(#paint0_linear_9_612)"/>
<g clip-path="url(#clip0_9_612)">
<path d="M25.8672 16.6602L22.1773 11.239C22.0369 11.0896 21.834 11 21.6156 11H9.99976C9.5941 11 9.25865 11.3062 9.25865 11.6796V22.3204C9.25865 22.6938 9.5941 23 9.99976 23H21.6156C21.834 23 22.0369 22.9104 22.1773 22.761L25.8672 17.3398C26.0466 17.1456 26.0466 16.8544 25.8672 16.6602ZM20.2348 17.295H19.1037L18.425 19.0426C18.347 19.2367 18.1519 19.3786 17.9257 19.3786H17.9179C17.6995 19.3786 17.5044 19.2517 17.4264 19.0575L16.3655 16.5556L15.3904 19.0426C15.3123 19.2442 15.1173 19.3786 14.8911 19.3786C14.657 19.3637 14.4698 19.2442 14.3918 19.0575L13.6273 17.295H12.4649C12.1685 17.295 11.9267 17.0635 11.9267 16.7797C11.9267 16.4959 12.1685 16.2644 12.4649 16.2644H13.1748L12.777 15.3308C12.66 15.0769 12.7926 14.7707 13.0656 14.6587C13.128 14.6363 13.1982 14.6214 13.2763 14.6214C13.4869 14.6214 13.6897 14.7483 13.7677 14.9425L14.8599 17.4593L15.8506 14.9574C15.9286 14.7558 16.1237 14.6214 16.3421 14.6214C16.5605 14.6214 16.7711 14.7483 16.8492 14.9425L17.9023 17.4369L18.854 14.9574C18.9398 14.7558 19.1427 14.6214 19.3611 14.6214C19.4313 14.6214 19.4859 14.6288 19.5483 14.6512C19.8292 14.7558 19.9696 15.0471 19.8682 15.3159L19.5015 16.2644H20.2348C20.5313 16.2644 20.7731 16.4959 20.7731 16.7797C20.7731 17.0635 20.5313 17.295 20.2348 17.295Z" fill="white"/>
</g>
<defs>
<linearGradient id="paint0_linear_9_612" x1="3.6029" y1="4.35903e-07" x2="29.3971" y2="33" gradientUnits="userSpaceOnUse">
<stop offset="0.198881" stop-color="#E2EEFF" stop-opacity="0.48"/>
<stop offset="1" stop-color="#3984F3" stop-opacity="0.42"/>
</linearGradient>
<clipPath id="clip0_9_612">
<rect width="17" height="14" fill="white" transform="translate(9 10)"/>
</clipPath>
</defs>
</svg>
