<svg width="24" height="25" viewBox="0 0 24 25" fill="none" xmlns="http://www.w3.org/2000/svg">
<path d="M15 2.68408C17.2091 2.68408 19 4.47494 19 6.68408C19 7.41311 18.8049 8.09659 18.4642 8.68519L23 8.68408V10.6841H21V20.6841C21 21.2364 20.5523 21.6841 20 21.6841H4C3.44772 21.6841 3 21.2364 3 20.6841V10.6841H1V8.68408L5.53577 8.68519C5.19504 8.09659 5 7.41311 5 6.68408C5 4.47494 6.79086 2.68408 9 2.68408C10.1952 2.68408 11.268 3.20829 12.0009 4.03934C12.732 3.20829 13.8048 2.68408 15 2.68408ZM13 10.6841H11V20.6841H13V10.6841ZM9 4.68408C7.89543 4.68408 7 5.57951 7 6.68408C7 7.73844 7.81588 8.60224 8.85074 8.67859L9 8.68408H11V6.68408C11 5.68243 10.2637 4.85277 9.30278 4.70685L9.14927 4.68956L9 4.68408ZM15 4.68408C13.9456 4.68408 13.0818 5.49996 13.0055 6.53482L13 6.68408V8.68408H15C16.0543 8.68408 16.9181 7.8682 16.9945 6.83334L17 6.68408C17 5.57951 16.1046 4.68408 15 4.68408Z" fill="#C4CBD3"/>
</svg>
