<svg width="32" height="32" viewBox="0 0 32 32" fill="none" xmlns="http://www.w3.org/2000/svg">
<path d="M21.2627 18.5763L18.5968 21.2392L20.2527 22.8921L22.9186 20.2292L21.2627 18.5763Z" fill="#D3E6ED"/>
<path d="M20.0986 7.58715C18.2398 5.73107 15.7543 4.87383 13.3201 5.01496C11.2331 5.13522 9.18754 5.99292 7.59051 7.58261C4.1365 11.0329 4.1365 16.6266 7.59051 20.0769C9.18254 21.6652 11.2277 22.5184 13.3101 22.6445C14.7044 22.7294 16.1138 22.4825 17.4172 21.9075C18.3916 21.4782 19.3015 20.8688 20.0991 20.071C20.8967 19.2745 21.5084 18.3665 21.9324 17.3976C23.3672 14.1597 22.7509 10.241 20.0991 7.5867M18.567 18.5453C18.2934 18.8185 18.0012 19.064 17.6949 19.2795C15.3925 20.9064 12.2916 20.9064 9.98924 19.2809C9.68383 19.064 9.39251 18.8203 9.11846 18.5466C6.50977 15.945 6.50977 11.7173 9.11846 9.1124C11.7272 6.50709 15.9579 6.5089 18.5666 9.11377C21.1757 11.7186 21.1757 15.9404 18.5666 18.5453" fill="#3984F3"/>
<path d="M22.9156 20.1402L26.4223 23.6418C27.1908 24.4092 27.1935 25.6567 26.4246 26.4246C25.6533 27.1947 24.404 27.192 23.6354 26.4246L20.1292 22.9234L22.9156 20.1402Z" fill="#0F3961"/>
<path d="M22.9702 19.4368C23.2016 19.6683 23.2016 20.0472 22.9675 20.2809L20.2693 22.9747C20.0357 23.2089 19.6557 23.2089 19.424 22.9774C19.1904 22.7437 19.1904 22.3648 19.424 22.1306L22.1222 19.4368C22.3562 19.2031 22.7357 19.2031 22.9702 19.4368Z" fill="#2C3033"/>
<mask id="mask0_41_8" style="mask-type:luminance" maskUnits="userSpaceOnUse" x="7" y="7" width="14" height="14">
<path d="M20.5232 7.15935H7.16296V20.5H20.5232V7.15935Z" fill="white"/>
</mask>
<g mask="url(#mask0_41_8)">
<path d="M18.5667 18.5454C18.2931 18.8182 18.0009 19.0641 17.6945 19.2788C15.3922 20.9066 12.2913 20.9066 9.98935 19.2806C9.68485 19.0646 9.39308 18.8209 9.11948 18.5472C6.51079 15.9442 6.51079 11.717 9.11948 9.11209C11.7282 6.50723 15.958 6.50904 18.5667 9.1139C21.1754 11.7188 21.1754 15.9406 18.5667 18.5454Z" fill="url(#paint0_linear_41_8)"/>
</g>
<defs>
<linearGradient id="paint0_linear_41_8" x1="8.79388" y1="7.15935" x2="18.892" y2="20.5001" gradientUnits="userSpaceOnUse">
<stop offset="0.236191" stop-color="#F8F8FA"/>
<stop offset="1" stop-color="#E2EEFF"/>
</linearGradient>
</defs>
</svg>
