<svg width="19" height="26" viewBox="0 0 19 26" fill="none" xmlns="http://www.w3.org/2000/svg">
<g clip-path="url(#clip0_115_66)">
<path d="M17.8179 1.35156H1.18207C0.529229 1.35156 0 1.85423 0 2.4743V24.2288C0 24.8489 0.529229 25.3516 1.18207 25.3516H17.8179C18.4708 25.3516 19 24.8489 19 24.2288V2.4743C19 1.85423 18.4708 1.35156 17.8179 1.35156Z" fill="#3984F3"/>
<path d="M17 3.95354V22.7496C17 23.0821 16.7778 23.3516 16.5037 23.3516H2.4963C2.22222 23.3516 2 23.0821 2 22.7496V3.95354C2 3.62103 2.22222 3.35156 2.4963 3.35156H16.5037C16.7778 3.35156 17 3.62103 17 3.95354Z" fill="white"/>
<path d="M12.5822 0H6.41802C5.01538 0 3.87793 1.15314 3.87793 2.5776V4.68434H15.1221V2.5776C15.1221 1.15314 13.9847 0 12.582 0H12.5822Z" fill="#0F3961"/>
<path d="M10.5999 2.34169C10.5999 2.95866 10.1086 3.458 9.50012 3.458C8.89166 3.458 8.40039 2.95855 8.40039 2.34169C8.40039 1.72484 8.89166 1.22461 9.50012 1.22461C10.1086 1.22461 10.5999 1.72473 10.5999 2.34169Z" fill="white"/>
<path d="M14.9237 7.06641H4.36475V8.3078H14.9237V7.06641Z" fill="#B0B9C2"/>
<path d="M14.9237 10.4678H4.36475V11.7086H14.9237V10.4678Z" fill="#B0B9C2"/>
<path d="M14.9236 13.8682H4.36475V15.109H14.9236V13.8682Z" fill="#B0B9C2"/>
</g>
<defs>
<clipPath id="clip0_115_66">
<rect width="19" height="26" fill="white"/>
</clipPath>
</defs>
</svg>
