<svg width="24" height="25" viewBox="0 0 24 25" fill="none" xmlns="http://www.w3.org/2000/svg">
<path d="M13.4235 2.3925C12.3151 1.44794 10.6849 1.44795 9.57658 2.39249L8.24406 3.52803C8.08574 3.66295 7.88889 3.74448 7.68154 3.76103L5.93638 3.90029C4.48476 4.01614 3.33205 5.16884 3.21621 6.62046L3.07695 8.36562C3.06041 8.57297 2.97885 8.76986 2.84393 8.92818L1.7084 10.2607C0.763859 11.3691 0.763869 12.9992 1.70842 14.1075L2.84395 15.4401C2.97885 15.5984 3.06039 15.7952 3.07694 16.0026L3.21623 17.7477C3.33207 19.1993 4.48478 20.352 5.93642 20.4678L7.68154 20.6072C7.88889 20.6237 8.0857 20.7053 8.24401 20.8402L9.57649 21.9757C10.6849 22.9202 12.3151 22.9203 13.4235 21.9757L14.756 20.8402C14.9142 20.7053 15.111 20.6237 15.3184 20.6071L17.0636 20.4678C18.5152 20.3521 19.6679 19.1994 19.7838 17.7477L19.923 16.0026C19.9395 15.7952 20.0211 15.5983 20.156 15.44L21.2915 14.1076C22.2361 12.9992 22.2361 11.369 21.2915 10.2607L20.156 8.92814C20.021 8.76981 19.9396 8.57297 19.9231 8.36563L19.7838 6.62047C19.668 5.16886 18.5152 4.01612 17.0636 3.90028L15.3184 3.76102C15.111 3.74447 14.9142 3.66295 14.756 3.52803L13.4235 2.3925ZM14.2956 7.99039L15.6935 9.38833L8.70386 16.378L7.30593 14.98L14.2956 7.99039ZM9.75234 10.4367C9.17326 11.0158 8.23446 11.0158 7.65541 10.4367C7.07636 9.85777 7.07636 8.91892 7.65541 8.33987C8.23446 7.76082 9.17326 7.76082 9.75234 8.33987C10.3314 8.91892 10.3314 9.85777 9.75234 10.4367ZM13.2471 16.0285C12.6681 15.4495 12.6681 14.5107 13.2471 13.9316C13.8262 13.3526 14.765 13.3526 15.344 13.9316C15.9231 14.5107 15.9231 15.4495 15.344 16.0285C14.765 16.6076 13.8262 16.6076 13.2471 16.0285Z" fill="#C4CBD3"/>
</svg>
