<svg width="22" height="23" viewBox="0 0 22 23" fill="none" xmlns="http://www.w3.org/2000/svg">
<path d="M8.96332 2.19848C10.2088 1.9384 11.5098 1.93019 12.7839 2.19591C12.9492 3.2762 13.587 4.27447 14.6096 4.86338C15.632 5.45227 16.8176 5.50417 17.838 5.10679C18.7058 6.07465 19.3492 7.20273 19.7461 8.40873C18.8921 9.09168 18.3453 10.1411 18.3453 11.318C18.3453 12.4956 18.8927 13.5455 19.7476 14.2284C19.5503 14.825 19.2892 15.4107 18.9618 15.9762C18.6345 16.5418 18.2567 17.0601 17.8374 17.5289C16.8171 17.1318 15.6318 17.1839 14.6096 17.7726C13.5878 18.361 12.9502 19.3582 12.7843 20.4375C11.5389 20.6975 10.2378 20.7057 8.96371 20.44C8.79845 19.3598 8.16061 18.3615 7.13811 17.7726C6.11562 17.1837 4.93005 17.1318 3.90957 17.5292C3.04181 16.5613 2.39842 15.4332 2.00148 14.2272C2.85554 13.5443 3.40241 12.4948 3.40241 11.318C3.40241 10.1405 2.85491 9.09046 2 8.40754C2.19732 7.8109 2.45846 7.22533 2.78578 6.65977C3.11311 6.09421 3.4909 5.57583 3.91022 5.10704C4.93055 5.50414 6.11583 5.45215 7.13811 4.86338C8.1598 4.27494 8.79745 3.27778 8.96332 2.19848ZM10.8738 14.1129C12.4212 14.1129 13.6756 12.8616 13.6756 11.318C13.6756 9.77441 12.4212 8.52305 10.8738 8.52305C9.32642 8.52305 8.07204 9.77441 8.07204 11.318C8.07204 12.8616 9.32642 14.1129 10.8738 14.1129Z" fill="#C4CBD3"/>
</svg>
