<svg width="26" height="26" viewBox="0 0 26 26" fill="none" xmlns="http://www.w3.org/2000/svg">
<g clip-path="url(#clip0_1_16)">
<path d="M17.2855 14.8417L14.8618 17.2627L16.3673 18.7655L18.791 16.3445L17.2855 14.8417Z" fill="#D3E6ED"/>
<path d="M16.2268 4.85019C14.5369 3.16271 12.2772 2.38334 10.0641 2.51165C8.16681 2.62099 6.30707 3.40078 4.85515 4.84607C1.71495 7.98297 1.71495 13.0685 4.85515 16.2054C6.30253 17.6495 8.16185 18.4251 10.0551 18.5398C11.3227 18.617 12.604 18.3925 13.789 17.8698C14.6749 17.4795 15.5021 16.9254 16.2272 16.2C16.9523 15.476 17.5085 14.6504 17.894 13.7695C19.1984 10.8257 18.6377 7.26341 16.2268 4.85019ZM14.8344 14.8129C14.5856 15.0613 14.3199 15.2845 14.0415 15.4805C11.9483 16.9596 9.12912 16.9596 7.03593 15.4817C6.75827 15.2845 6.49342 15.063 6.24427 14.8142C3.8726 12.4488 3.8726 8.60515 6.24427 6.2369C8.61594 3.86824 12.4623 3.86989 14.8339 6.23814C17.206 8.60639 17.2065 12.4447 14.8344 14.8129Z" fill="#3984F3"/>
<path d="M18.7876 16.2618L21.9757 19.4454C22.6744 20.143 22.6769 21.2772 21.9778 21.9753C21.2766 22.6755 20.1408 22.673 19.4421 21.9753L16.2544 18.7922L18.7876 16.2618Z" fill="#0F3961"/>
<path d="M18.8375 15.623C19.0478 15.8334 19.0478 16.1779 18.835 16.3904L16.3819 18.8395C16.1695 19.0524 15.8241 19.0524 15.6134 18.842C15.401 18.6295 15.401 18.285 15.6134 18.0721L18.0665 15.623C18.2792 15.4105 18.6243 15.4105 18.8375 15.623Z" fill="#2C3033"/>
<mask id="mask0_1_16" style="mask-type:luminance" maskUnits="userSpaceOnUse" x="4" y="4" width="13" height="13">
<path d="M16.6136 4.46191H4.46729V16.5907H16.6136V4.46191Z" fill="white"/>
</mask>
<g mask="url(#mask0_1_16)">
<path d="M14.8349 14.8137C14.5862 15.0617 14.3205 15.2853 14.042 15.4805C11.9488 16.9604 9.12965 16.9604 7.03687 15.4821C6.76004 15.2857 6.49478 15.0642 6.24604 14.8154C3.87437 12.4488 3.87437 8.60552 6.24604 6.23728C8.61771 3.86903 12.4632 3.87068 14.8349 6.23893C17.2066 8.60717 17.2066 12.4455 14.8349 14.8137Z" fill="#F8F8FA"/>
</g>
<mask id="mask1_1_16" style="mask-type:alpha" maskUnits="userSpaceOnUse" x="7" y="7" width="7" height="8">
<path d="M12.5841 7.73998L7.54455 12.9428C7.33684 13.1573 7.34229 13.4995 7.55673 13.7072L7.55674 13.7072C7.77118 13.9149 8.1134 13.9095 8.32111 13.695L13.3606 8.49218C13.5683 8.27774 13.5629 7.93551 13.3484 7.7278C13.134 7.52009 12.7918 7.52554 12.5841 7.73998Z" fill="#D9D9D9"/>
<path d="M13.598 13.5213C13.9339 12.9396 13.7346 12.1957 13.1529 11.8599C12.5711 11.524 11.8273 11.7233 11.4914 12.3051C11.1556 12.8868 11.3549 13.6307 11.9366 13.9665C12.5183 14.3024 13.2622 14.1031 13.598 13.5213Z" fill="#D9D9D9"/>
<path d="M9.30557 9.31553C9.64143 8.7338 9.44212 7.98994 8.86039 7.65408C8.27866 7.31821 7.53481 7.51753 7.19895 8.09926C6.86309 8.681 7.0624 9.42486 7.64413 9.76072C8.22586 10.0966 8.96971 9.89727 9.30557 9.31553Z" fill="#D9D9D9"/>
</mask>
<g mask="url(#mask1_1_16)">
<path d="M15.4799 5.04102H4.93896V15.3118H15.4799V5.04102Z" fill="url(#paint0_linear_1_16)"/>
</g>
</g>
<defs>
<linearGradient id="paint0_linear_1_16" x1="5.83912" y1="2.95876" x2="16.8107" y2="9.01432" gradientUnits="userSpaceOnUse">
<stop stop-color="#4888E6"/>
<stop offset="0.849381" stop-color="#8BB7F9"/>
</linearGradient>
<clipPath id="clip0_1_16">
<rect width="21" height="21" fill="white" transform="translate(2 2)"/>
</clipPath>
</defs>
</svg>
