<svg width="24" height="24" viewBox="0 0 24 24" fill="none" xmlns="http://www.w3.org/2000/svg">
<path d="M15 2C17.2091 2 19 3.79086 19 6C19 6.72903 18.8049 7.41251 18.4642 8.00111L23 8V9.99999H21V20C21 20.5523 20.5523 21 20 21H4C3.44772 21 3 20.5523 3 20V9.99999H1V8L5.53577 8.00111C5.19504 7.41251 5 6.72903 5 6C5 3.79086 6.79086 2 9 2C10.1952 2 11.268 2.52421 12.0009 3.35526C12.732 2.52421 13.8048 2 15 2ZM13 9.99999H11V20H13V9.99999ZM9 4C7.89543 4 7 4.89543 7 6C7 7.05436 7.81588 7.91816 8.85074 7.99451L9 8H11V6C11 4.99835 10.2637 4.16869 9.30278 4.02277L9.14927 4.00548L9 4ZM15 4C13.9456 4 13.0818 4.81588 13.0055 5.85074L13 6V8H15C16.0543 8 16.9181 7.18412 16.9945 6.14926L17 6C17 4.89543 16.1046 4 15 4Z" fill="#3984F3"/>
</svg>
