<svg width="26" height="26" viewBox="0 0 26 26" fill="none" xmlns="http://www.w3.org/2000/svg">
<path d="M21.7121 11.6751C21.8945 11.8271 22 12.0523 22 12.2897L22 22.196C22 22.6378 21.6418 22.996 21.2 22.996L3.80293 22.996C3.3611 22.996 3.00293 22.6378 3.00293 22.196L3.00293 12.2897C3.00293 12.0523 3.10839 11.8271 3.2908 11.6751L11.9893 4.42675C12.286 4.17954 12.7169 4.17954 13.0136 4.42675L21.7121 11.6751Z" fill="#2B64B9"/>
<rect x="20.4152" y="5.58292" width="15.83" height="15.8309" rx="0.8" transform="rotate(90 20.4152 5.58292)" fill="#F0F0F0"/>
<path d="M7.80991 9.10635H17.3084" stroke="#C4CBD3" stroke-width="0.8" stroke-linecap="round"/>
<path d="M7.80991 12.2714H17.3084" stroke="#C4CBD3" stroke-width="0.8" stroke-linecap="round"/>
<mask id="mask0_1_46" style="mask-type:alpha" maskUnits="userSpaceOnUse" x="3" y="5" width="19" height="18">
<path d="M21.6437 11.6795C21.8663 11.8278 22 12.0776 22 12.3451L22 22.1979C22 22.6398 21.6418 22.9979 21.2 22.9979L3.80293 22.9979C3.3611 22.9979 3.00293 22.6398 3.00293 22.1979L3.00293 12.3451C3.00293 12.0776 3.13662 11.8278 3.35919 11.6795L12.0577 5.88077C12.3264 5.70164 12.6765 5.70164 12.9452 5.88077L21.6437 11.6795Z" fill="#FF5F6A"/>
</mask>
<g mask="url(#mask0_1_46)">
<path d="M4.81133 22.7989C4.6655 22.9265 4.47832 22.9969 4.28455 22.9969L3.64876 22.9969C3.27153 22.9969 2.94556 22.7334 2.86652 22.3645L0.834761 12.8835C0.728038 12.3855 1.10768 11.9159 1.617 11.9159L1.97754 11.9159C2.12968 11.9159 2.27867 11.9593 2.40702 12.041L10.0162 16.8828C10.4665 17.1694 10.5152 17.8083 10.1135 18.1599L4.81133 22.7989Z" fill="#3984F3"/>
<path d="M20.1914 22.7989C20.3372 22.9265 20.5244 22.9969 20.7182 22.9969L21.3539 22.9969C21.7312 22.9969 22.0571 22.7334 22.1362 22.3645L24.1679 12.8835C24.2747 12.3855 23.895 11.9159 23.3857 11.9159L23.0252 11.9159C22.873 11.9159 22.724 11.9593 22.5957 12.041L14.9865 16.8828C14.5362 17.1694 14.4875 17.8083 14.8892 18.1599L20.1914 22.7989Z" fill="#3984F3"/>
</g>
<path d="M21.6437 21.1764C21.8663 21.3248 22 21.5746 22 21.8421L22 22.1969C22 22.6388 21.6418 22.9969 21.2 22.9969L3.80293 22.9969C3.3611 22.9969 3.00293 22.6388 3.00293 22.1969L3.00293 21.8421C3.00293 21.5746 3.13662 21.3248 3.35919 21.1764L12.0577 15.3778C12.3264 15.1986 12.6765 15.1986 12.9452 15.3778L21.6437 21.1764Z" fill="#86C1FF"/>
</svg>
