<svg width="14" height="14" viewBox="0 0 14 14" fill="none" xmlns="http://www.w3.org/2000/svg">
<path d="M2.20679 1.64848L7 1.64837L11.7932 1.64848C12.0601 1.7078 12.25 1.94452 12.25 2.21793V8.04352C12.25 10.2082 11.9583 9.91655 10.6914 10.9557L7 13.4167L3.30855 10.9557C2.04167 9.91655 1.75 10.2082 1.75 8.04352V2.21793C1.75 1.94452 1.93989 1.7078 2.20679 1.64848ZM7 7.87499L8.71436 8.7763L8.38693 6.86729L9.77393 5.51536L7.85721 5.23685L7 3.49999L6.14279 5.23685L4.22609 5.51536L5.61304 6.86729L5.28562 8.7763L7 7.87499Z" fill="#418AF6"/>
</svg>
