<svg width="32" height="32" viewBox="0 0 32 32" fill="none" xmlns="http://www.w3.org/2000/svg">
<path d="M21.2626 18.5764L18.5967 21.2393L20.2526 22.8922L22.9185 20.2293L21.2626 18.5764Z" fill="#D3E6ED"/>
<path d="M20.0986 7.58715C18.2398 5.73107 15.7543 4.87383 13.3201 5.01496C11.2331 5.13522 9.18754 5.99292 7.59051 7.58261C4.1365 11.0329 4.1365 16.6266 7.59051 20.0769C9.18254 21.6652 11.2277 22.5184 13.3101 22.6445C14.7044 22.7294 16.1138 22.4825 17.4172 21.9075C18.3916 21.4782 19.3015 20.8688 20.0991 20.071C20.8967 19.2745 21.5084 18.3665 21.9324 17.3976C23.3672 14.1597 22.7509 10.241 20.0991 7.5867M18.567 18.5453C18.2934 18.8185 18.0012 19.064 17.6949 19.2795C15.3925 20.9064 12.2916 20.9064 9.98924 19.2809C9.68383 19.064 9.39251 18.8203 9.11846 18.5466C6.50977 15.945 6.50977 11.7173 9.11846 9.1124C11.7272 6.50709 15.9579 6.5089 18.5666 9.11377C21.1757 11.7186 21.1757 15.9404 18.5666 18.5453" fill="#FF5F6A"/>
<path d="M22.9155 20.1401L26.4223 23.6417C27.1908 24.4091 27.1935 25.6566 26.4246 26.4245C25.6533 27.1946 24.404 27.1919 23.6354 26.4245L20.1292 22.9233L22.9155 20.1401Z" fill="#0F3961"/>
<path d="M22.9703 19.4368C23.2016 19.6682 23.2016 20.0471 22.9675 20.2808L20.2693 22.9747C20.0357 23.2088 19.6558 23.2088 19.424 22.9774C19.1904 22.7437 19.1904 22.3647 19.424 22.1306L22.1222 19.4368C22.3563 19.203 22.7357 19.203 22.9703 19.4368Z" fill="#2C3033"/>
<path d="M18.5668 18.5455C18.2932 18.8182 18.001 19.0642 17.6947 19.2788C15.3923 20.9067 12.2914 20.9067 9.98947 19.2807C9.68497 19.0646 9.3932 18.821 9.11961 18.5473C6.51091 15.9443 6.51091 11.717 9.11961 9.11216C11.7283 6.5073 15.9581 6.50912 18.5668 9.11398C21.1755 11.7188 21.1755 15.9406 18.5668 18.5455Z" fill="url(#paint0_linear_41_38)"/>
<defs>
<linearGradient id="paint0_linear_41_38" x1="8.794" y1="7.15942" x2="18.8921" y2="20.5002" gradientUnits="userSpaceOnUse">
<stop offset="0.236191" stop-color="#F8F8FA"/>
<stop offset="1" stop-color="#E2EEFF"/>
</linearGradient>
</defs>
</svg>
