<svg width="34" height="33" viewBox="0 0 34 33" fill="none" xmlns="http://www.w3.org/2000/svg">
<path d="M0.657018 10.8473C0.819119 5.0117 5.5117 0.319119 11.3473 0.157018L17 0L22.6527 0.157018C28.4883 0.319119 33.1809 5.0117 33.343 10.8473L33.5 16.5L33.343 22.1527C33.1809 27.9883 28.4883 32.6809 22.6527 32.843L17 33L11.3473 32.843C5.5117 32.6809 0.819119 27.9883 0.657018 22.1527L0.5 16.5L0.657018 10.8473Z" fill="url(#paint0_linear_9_596)"/>
<g clip-path="url(#clip0_9_596)">
<path d="M20.5886 18.2566L18.771 20.0723L19.9 21.1993L21.7177 19.3837L20.5886 18.2566Z" fill="white"/>
<path d="M19.7947 10.764C18.5273 9.49847 16.8327 8.91398 15.173 9.01021C13.7501 9.09221 12.3554 9.67701 11.2666 10.7609C8.91157 13.1134 8.91157 16.9273 11.2666 19.2798C12.352 20.3628 13.7464 20.9445 15.1662 21.0305C16.1169 21.0884 17.0778 20.92 17.9665 20.528C18.6308 20.2353 19.2512 19.8198 19.795 19.2758C20.3388 18.7328 20.7559 18.1136 21.045 17.453C22.0233 15.2453 21.6031 12.5735 19.795 10.7637M18.7504 18.2355C18.5639 18.4218 18.3647 18.5892 18.1558 18.7362C16.586 19.8454 14.4718 19.8454 12.902 18.7371C12.6938 18.5892 12.4952 18.423 12.3083 18.2365C10.5297 16.4626 10.5297 13.58 12.3083 11.804C14.087 10.0276 16.9715 10.0288 18.7501 11.8049C20.5291 13.5809 20.5291 16.4595 18.7501 18.2355" fill="white"/>
<path d="M21.7152 19.3222L24.1062 21.7097C24.6301 22.2329 24.632 23.0835 24.1077 23.607C23.5819 24.1321 22.73 24.1303 22.2061 23.607L19.8154 21.2199L21.7155 19.3225L21.7152 19.3222Z" fill="white"/>
</g>
<defs>
<linearGradient id="paint0_linear_9_596" x1="4.1029" y1="4.35903e-07" x2="29.8971" y2="33" gradientUnits="userSpaceOnUse">
<stop offset="0.198881" stop-color="#E2EEFF" stop-opacity="0.48"/>
<stop offset="1" stop-color="#3984F3" stop-opacity="0.42"/>
</linearGradient>
<clipPath id="clip0_9_596">
<rect width="15" height="15" fill="white" transform="translate(9.5 9)"/>
</clipPath>
</defs>
</svg>
