<svg width="26" height="26" viewBox="0 0 26 26" fill="none" xmlns="http://www.w3.org/2000/svg">
<g clip-path="url(#clip0_1_15)">
<mask id="mask0_1_15" style="mask-type:luminance" maskUnits="userSpaceOnUse" x="3" y="0" width="19" height="26">
<path d="M22 0H3V26H22V0Z" fill="white"/>
</mask>
<g mask="url(#mask0_1_15)">
<path d="M20.8179 1.35156H4.18207C3.52923 1.35156 3 1.85423 3 2.4743V24.2288C3 24.8489 3.52923 25.3516 4.18207 25.3516H20.8179C21.4708 25.3516 22 24.8489 22 24.2288V2.4743C22 1.85423 21.4708 1.35156 20.8179 1.35156Z" fill="#3984F3"/>
<path d="M20 3.95354V22.7496C20 23.0821 19.7778 23.3516 19.5037 23.3516H5.4963C5.22222 23.3516 5 23.0821 5 22.7496V3.95354C5 3.62103 5.22222 3.35156 5.4963 3.35156H19.5037C19.7778 3.35156 20 3.62103 20 3.95354Z" fill="white"/>
<path d="M15.5822 0H9.41802C8.01538 0 6.87793 1.15314 6.87793 2.5776V4.68434H18.1221V2.5776C18.1221 1.15314 16.9849 0 15.5822 0Z" fill="#0F3961"/>
<path d="M13.5999 2.34169C13.5999 2.95866 13.1086 3.458 12.5001 3.458C11.8917 3.458 11.4004 2.95855 11.4004 2.34169C11.4004 1.72484 11.8917 1.22461 12.5001 1.22461C13.1086 1.22461 13.5999 1.72473 13.5999 2.34169Z" fill="white"/>
<path d="M17.9237 7.06641H7.36475V8.3078H17.9237V7.06641Z" fill="#B0B9C2"/>
<path d="M17.9237 10.4678H7.36475V11.7086H17.9237V10.4678Z" fill="#B0B9C2"/>
<path d="M17.9236 13.8682H7.36475V15.109H17.9236V13.8682Z" fill="#B0B9C2"/>
</g>
</g>
<defs>
<clipPath id="clip0_1_15">
<rect width="19" height="26" fill="white" transform="translate(3)"/>
</clipPath>
</defs>
</svg>
