<svg width="21" height="21" viewBox="0 0 21 21" fill="none" xmlns="http://www.w3.org/2000/svg">
<path d="M15.2855 12.8417L12.8618 15.2627L14.3673 16.7655L16.791 14.3445L15.2855 12.8417Z" fill="#D3E6ED"/>
<path d="M14.2268 2.85019C12.5369 1.16271 10.2772 0.383336 8.06415 0.511651C6.16681 0.620987 4.30707 1.40078 2.85515 2.84607C-0.285049 5.98297 -0.285049 11.0685 2.85515 14.2054C4.30253 15.6495 6.16185 16.4251 8.05506 16.5398C9.32271 16.617 10.604 16.3925 11.789 15.8698C12.6749 15.4795 13.5021 14.9254 14.2272 14.2C14.9523 13.476 15.5085 12.6504 15.894 11.7695C17.1984 8.82569 16.6381 5.263 14.2272 2.84978M12.8344 12.8129C12.5856 13.0613 12.3199 13.2845 12.0415 13.4805C9.94827 14.9596 7.12912 14.9596 5.03593 13.4817C4.75827 13.2845 4.49342 13.063 4.24427 12.8142C1.8726 10.4488 1.8726 6.60515 4.24427 4.2369C6.61594 1.86824 10.4623 1.86989 12.8339 4.23814C15.206 6.60639 15.206 10.4447 12.8339 12.8129" fill="#3984F3"/>
<path d="M16.7876 14.2618L19.9757 17.4454C20.6744 18.143 20.6769 19.2772 19.9778 19.9753C19.2766 20.6755 18.1408 20.673 17.4421 19.9753L14.2544 16.7922L16.7876 14.2618Z" fill="#0F3961"/>
<path d="M16.8375 13.623C17.0478 13.8334 17.0478 14.1779 16.835 14.3904L14.3819 16.8395C14.1695 17.0524 13.8241 17.0524 13.6134 16.842C13.401 16.6295 13.401 16.285 13.6134 16.0721L16.0665 13.623C16.2792 13.4105 16.6243 13.4105 16.8375 13.623Z" fill="#2C3033"/>
<mask id="mask0_115_42" style="mask-type:luminance" maskUnits="userSpaceOnUse" x="2" y="2" width="13" height="13">
<path d="M14.6136 2.46191H2.46729V14.5907H14.6136V2.46191Z" fill="white"/>
</mask>
<g mask="url(#mask0_115_42)">
<path d="M12.8349 12.8137C12.5862 13.0617 12.3205 13.2853 12.042 13.4805C9.9488 14.9604 7.12965 14.9604 5.03687 13.4821C4.76004 13.2857 4.49478 13.0642 4.24604 12.8154C1.87437 10.4488 1.87437 6.60552 4.24604 4.23728C6.61771 1.86903 10.4632 1.87068 12.8349 4.23893C15.2066 6.60717 15.2066 10.4455 12.8349 12.8137Z" fill="#F8F8FA"/>
</g>
<mask id="mask1_115_42" style="mask-type:alpha" maskUnits="userSpaceOnUse" x="5" y="5" width="7" height="8">
<rect width="8.32448" height="1.08113" rx="0.540563" transform="matrix(0.695743 -0.718291 0.718284 0.69575 5.16846 11.3311)" fill="#D9D9D9"/>
<ellipse cx="1.21627" cy="1.21626" rx="1.21627" ry="1.21626" transform="matrix(0.499996 -0.866028 0.866023 0.500004 8.8833 11.3584)" fill="#D9D9D9"/>
<ellipse cx="1.21627" cy="1.21626" rx="1.21627" ry="1.21626" transform="matrix(0.499996 -0.866028 0.866023 0.500004 4.59082 7.15259)" fill="#D9D9D9"/>
</mask>
<g mask="url(#mask1_115_42)">
<rect x="2.93896" y="3.04102" width="10.5409" height="10.2708" fill="url(#paint0_linear_115_42)"/>
</g>
<defs>
<linearGradient id="paint0_linear_115_42" x1="3.83912" y1="0.958764" x2="14.8107" y2="7.01432" gradientUnits="userSpaceOnUse">
<stop stop-color="#4888E6"/>
<stop offset="0.849381" stop-color="#8BB7F9"/>
</linearGradient>
</defs>
</svg>
