<svg width="24" height="24" viewBox="0 0 24 24" fill="none" xmlns="http://www.w3.org/2000/svg">
<path d="M13.4235 1.70842C12.3151 0.763857 10.6849 0.763867 9.57658 1.70841L8.24406 2.84395C8.08574 2.97887 7.88889 3.0604 7.68154 3.07694L5.93638 3.21621C4.48476 3.33205 3.33205 4.48476 3.21621 5.93638L3.07695 7.68154C3.06041 7.88888 2.97885 8.08578 2.84393 8.2441L1.7084 9.57659C0.763859 10.685 0.763869 12.3151 1.70842 13.4234L2.84395 14.756C2.97885 14.9143 3.06039 15.1112 3.07694 15.3185L3.21623 17.0636C3.33207 18.5152 4.48478 19.6679 5.93642 19.7837L7.68154 19.9231C7.88889 19.9396 8.0857 20.0212 8.24401 20.1561L9.57649 21.2916C10.6849 22.2361 12.3151 22.2362 13.4235 21.2916L14.756 20.1561C14.9142 20.0212 15.111 19.9396 15.3184 19.923L17.0636 19.7837C18.5152 19.668 19.6679 18.5153 19.7838 17.0636L19.923 15.3185C19.9395 15.1112 20.0211 14.9142 20.156 14.7559L21.2915 13.4235C22.2361 12.3151 22.2361 10.6849 21.2915 9.57659L20.156 8.24406C20.021 8.08573 19.9396 7.88889 19.9231 7.68155L19.7838 5.93639C19.668 4.48478 18.5152 3.33203 17.0636 3.2162L15.3184 3.07693C15.111 3.06039 14.9142 2.97887 14.756 2.84395L13.4235 1.70842ZM14.2956 7.30631L15.6935 8.70425L8.70386 15.694L7.30593 14.2959L14.2956 7.30631ZM9.75234 9.75264C9.17326 10.3317 8.23446 10.3317 7.65541 9.75264C7.07636 9.17369 7.07636 8.23484 7.65541 7.65579C8.23446 7.07674 9.17326 7.07674 9.75234 7.65579C10.3314 8.23484 10.3314 9.17369 9.75234 9.75264ZM13.2471 15.3444C12.6681 14.7654 12.6681 13.8266 13.2471 13.2476C13.8262 12.6685 14.765 12.6685 15.344 13.2476C15.9231 13.8266 15.9231 14.7654 15.344 15.3444C14.765 15.9235 13.8262 15.9235 13.2471 15.3444Z" fill="#3984F3"/>
</svg>
