<svg width="34" height="33" viewBox="0 0 34 33" fill="none" xmlns="http://www.w3.org/2000/svg">
<path d="M0.657018 10.8473C0.819119 5.0117 5.5117 0.319119 11.3473 0.157018L17 0L22.6527 0.157018C28.4883 0.319119 33.1809 5.0117 33.343 10.8473L33.5 16.5L33.343 22.1527C33.1809 27.9883 28.4883 32.6809 22.6527 32.843L17 33L11.3473 32.843C5.5117 32.6809 0.819119 27.9883 0.657018 22.1527L0.5 16.5L0.657018 10.8473Z" fill="url(#paint0_linear_9_590)"/>
<g clip-path="url(#clip0_9_590)">
<path d="M16.998 9C12.8559 9 9.5 12.3559 9.5 16.498C9.5 20.6402 12.8559 24 16.998 24C21.1402 24 24.5 20.6402 24.5 16.498C24.5 12.3559 21.1402 9 16.998 9ZM21.2653 16.9244H20.0176L19.2784 18.927C19.1923 19.1538 18.9733 19.3103 18.7308 19.3142H18.7229C18.4804 19.3142 18.2653 19.1695 18.1754 18.9426L17.0176 16.0756L15.9459 18.9309C15.8598 19.1578 15.6447 19.3103 15.3983 19.3142C15.1362 19.2986 14.9329 19.1617 14.8429 18.9465L14.0059 16.9244H12.7308C12.4061 16.9244 12.1402 16.6584 12.1402 16.3338C12.1402 16.0091 12.4061 15.7392 12.7308 15.7392H13.513L13.0711 14.6714C12.9459 14.3742 13.0906 14.0261 13.3918 13.9009C13.4622 13.8696 13.5404 13.854 13.6186 13.854C13.8572 13.854 14.0724 13.9987 14.1623 14.2216L15.3631 17.1121L16.4465 14.2373C16.5326 14.0065 16.7477 13.8579 16.9902 13.854C17.2405 13.854 17.4557 13.9987 17.5495 14.2256L18.6995 17.0808L19.7516 14.2412C19.8377 14.0104 20.0606 13.854 20.3031 13.854C20.3774 13.854 20.4439 13.8657 20.5104 13.8931C20.8155 14.0065 20.972 14.3468 20.8585 14.6519L20.4557 15.7392H21.2653C21.59 15.7392 21.8559 16.0052 21.8559 16.3338C21.8559 16.6623 21.59 16.9244 21.2653 16.9244Z" fill="white"/>
</g>
<defs>
<linearGradient id="paint0_linear_9_590" x1="4.1029" y1="4.35903e-07" x2="29.8971" y2="33" gradientUnits="userSpaceOnUse">
<stop offset="0.198881" stop-color="#E2EEFF" stop-opacity="0.48"/>
<stop offset="1" stop-color="#3984F3" stop-opacity="0.42"/>
</linearGradient>
<clipPath id="clip0_9_590">
<rect width="15" height="15" fill="white" transform="translate(9.5 9)"/>
</clipPath>
</defs>
</svg>
